<svg width="111" height="112" viewBox="0 0 111 112" fill="none" xmlns="http://www.w3.org/2000/svg">
<g clip-path="url(#clip0_33_103)">
<circle cx="54.6924" cy="55.1435" r="40.3044" fill="#EDEDED"/>
<path d="M55.4827 9.83392C46.365 9.83392 37.452 12.5376 29.871 17.6031C22.2899 22.6687 16.3811 29.8685 12.892 38.2921C9.40277 46.7158 8.48984 55.9849 10.2686 64.9274C12.0474 73.8699 16.438 82.0841 22.8851 88.5313C29.3323 94.9785 37.5465 99.3691 46.489 101.148C55.4315 102.927 64.7007 102.014 73.1243 98.5245C81.548 95.0353 88.7478 89.1266 93.8133 81.5455C98.8788 73.9644 101.583 65.0515 101.583 55.9338C101.583 49.8799 100.39 43.8852 98.0734 38.2921C95.7566 32.699 92.3609 27.617 88.0802 23.3363C83.7994 19.0555 78.7174 15.6598 73.1243 13.3431C67.5312 11.0263 61.5366 9.83392 55.4827 9.83392ZM46.2627 76.6787V35.1888L73.9226 55.9338L46.2627 76.6787Z" fill="#FF6363"/>
</g>
<defs>
<clipPath id="clip0_33_103">
<rect width="110.64" height="110.64" fill="white" transform="translate(0.162842 0.613953)"/>
</clipPath>
</defs>
</svg>
